<svg id="Ebene_1" data-name="Ebene 1" xmlns="http://www.w3.org/2000/svg" width="128" height="105" viewBox="0 0 128 105.79">
  <g id="daymode">
    <g id="day_mode" data-name="day mode">
      <path d="M60.21,40.7l-1,2.84,0,.05-1,3.11-14-41a2.69,2.69,0,0,0-2.54-1.8H36.29V0h20.5V3.93H51.41a2.67,2.67,0,0,0-2.52,3.54Z" transform="translate(0)"/>
      <path d="M128,0V3.93h-5.38a2.68,2.68,0,0,0-2.49,1.72L82.37,105.79H78.3L64.15,64.23l2-6,.62,1.82,4.36,12.79a2.69,2.69,0,0,0,5.06.06l6.31-17.19h0l.72-1.9.3-.83L100.33,7.52a2.68,2.68,0,0,0-2.52-3.59H92.43V0Z" transform="translate(0)"/>
      <path d="M88,0V3.93H82.64a2.69,2.69,0,0,0-2.52,1.82L71.4,31.36l-6.08,17.8-.5,1.55v0l-.62,1.71v0l-2,6-2.44,7.17L46.06,105.79H42L7.89,5.75A2.68,2.68,0,0,0,5.35,3.93H0V0H20.47V3.93H15.12a2.67,2.67,0,0,0-2.54,3.54l27,79.37,1.87,5.51a2.68,2.68,0,0,0,5.08,0l1.88-5.51L55.8,65.22l4.33-12.74.24-.67L62,47.1l.19-.62.08-.16v0l7.14-21L75.47,7.47a2.68,2.68,0,0,0-2.54-3.54H67.57V0Z" transform="translate(0)"/>
      <polygon points="63.59 9.47 66.58 13.27 62.76 10.33 62.19 15.15 61.55 10.36 57.75 13.35 60.7 9.5 55.88 8.96 60.7 8.32 57.67 4.52 61.52 7.47 61.87 4.47 62.09 2.65 62.33 4.47 62.73 7.44 66.47 4.47 63.56 8.3 68.38 8.83 63.59 9.47"/>
    </g>
    <g id="sonne3">
      <path d="M79.56,61.82,75.92,72.24a2.3,2.3,0,0,1-4.41,0L68.13,61.7a6.93,6.93,0,0,1,5.66-3A7.06,7.06,0,0,1,79.56,61.82Z" transform="translate(0)"/>
      <path d="M73.66,46.46l-.8,10.44a.16.16,0,0,0,.16.18H74.3a.17.17,0,0,0,.17-.18Z" transform="translate(0)"/>
      <path d="M82.12,54.6,81.28,57v0l-1.93,2.54a.16.16,0,0,1-.24,0l-.95-.9a.21.21,0,0,1,0-.24Z" transform="translate(0)"/>
      <path d="M66.89,56.19l-.27.78L67,58.25l1,1.27a.16.16,0,0,0,.24,0l1-.9a.25.25,0,0,0,0-.24Z" transform="translate(0)"/>
      <path d="M78.27,51.65,75.5,57.13a.13.13,0,0,0,.07.18l1.26.47a.12.12,0,0,0,.17-.09Z" transform="translate(0)"/>
      <path d="M71.83,57.13a.14.14,0,0,1-.08.18l-1.26.47c-.08,0-.15,0-.17-.08L69.1,51.92v0l0-.25.09.17Z" transform="translate(0)"/>
    </g>
  </g>
</svg>