<svg id="Ebene_1" data-name="Ebene 1" xmlns="http://www.w3.org/2000/svg" width="128" height="105" viewBox="0 0 128 105.79"><defs><style>.cls-1{fill:#fff;}</style></defs><g id="night_mode" data-name="night mode"><path class="cls-1" d="M60.21,40.7l-1,2.84,0,.05-1,3.11-14-41a2.69,2.69,0,0,0-2.54-1.8H36.29V0h20.5V3.93H51.41a2.67,2.67,0,0,0-2.52,3.54Z"/><path class="cls-1" d="M128,0V3.93h-5.38a2.68,2.68,0,0,0-2.49,1.72L82.37,105.79H78.3L64.15,64.23l2-6,.62,1.82,4.36,12.79a2.69,2.69,0,0,0,5.06,0l6.31-17.18h0l.69-1.9.3-.83L100.33,7.52a2.68,2.68,0,0,0-2.52-3.59H92.43V0Z"/><path class="cls-1" d="M88,0V3.93H82.64a2.69,2.69,0,0,0-2.52,1.82L71.4,31.36l-6.08,17.8-.5,1.55v0l-.62,1.71v0l-2,6-2.44,7.17L46.06,105.79H42L7.89,5.75A2.68,2.68,0,0,0,5.35,3.93H0V0H20.47V3.93H15.12a2.67,2.67,0,0,0-2.54,3.54l27,79.37,1.87,5.51a2.68,2.68,0,0,0,5.08,0l1.88-5.51L55.8,65.22l4.33-12.74.24-.67L62,47.1l.19-.62.08-.16v0l7.14-21L75.47,7.47a2.68,2.68,0,0,0-2.54-3.54H67.57V0Z"/><g id="luna3"><path class="cls-1" d="M48,30.86A14.17,14.17,0,1,1,36.26,6.14a14.12,14.12,0,0,0,9.17,25A13.34,13.34,0,0,0,48,30.86Z"/></g><polygon class="cls-1" points="63.59 9.47 66.58 13.27 62.76 10.33 62.19 15.15 61.55 10.36 57.75 13.35 60.7 9.5 55.88 8.96 60.7 8.32 57.67 4.52 61.52 7.47 61.87 4.47 62.09 2.65 62.33 4.47 62.73 7.44 66.47 4.47 63.56 8.3 68.38 8.83 63.59 9.47"/></g></svg>